<?xml version="1.0" encoding="UTF-8"?>
<svg width="800px" height="800px" stroke="#ffffff" stroke-width=".00024" version="1.1" viewBox="0 0 24 24" xmlns="http://www.w3.org/2000/svg">
<g fill="#fff">
<path d="m22 22h-20c-0.41 0-0.75-0.34-0.75-0.75s0.34-0.75 0.75-0.75h20c0.41 0 0.75 0.34 0.75 0.75s-0.34 0.75-0.75 0.75z"/>
<path d="m9.75 4v18h4.5v-18c0-1.1-0.45-2-1.8-2h-0.9c-1.35 0-1.8 0.9-1.8 2z"/>
<path d="M3 10V22H7V10C7 8.9 6.6 8 5.4 8H4.6C3.4 8 3 8.9 3 10Z" opacity=".4"/>
<path d="m17 15v7h4v-7c0-1.1-0.4-2-1.6-2h-0.8c-1.2 0-1.6 0.9-1.6 2z" opacity=".4"/>
</g>
<g transform="matrix(.32401 0 0 .32401 15.74 1.6993)" fill="#fff">
<path d="m12 22c5.5228 0 10-4.4772 10-10 0-5.5228-4.4772-10-10-10-5.5228 0-10 4.4772-10 10 0 5.5228 4.4772 10 10 10z" opacity=".4"/>
<path d="m13.059 12 2.3-2.3c0.29-0.29 0.29-0.77 0-1.06s-0.77-0.29-1.06 0l-2.3 2.3-2.3-2.3c-0.29-0.29-0.77-0.29-1.06 0-0.29 0.29-0.29 0.77 0 1.06l2.3 2.3-2.3 2.3c-0.29 0.29-0.29 0.77 0 1.06 0.15 0.15 0.33999 0.22 0.52999 0.22s0.38-0.07 0.53-0.22l2.3-2.3 2.3 2.3c0.15 0.15 0.34 0.22 0.53 0.22s0.38-0.07 0.53-0.22c0.29-0.29 0.29-0.77 0-1.06z"/>
</g>
</svg>
