<?xml version="1.0" encoding="UTF-8"?>
<svg width="800px" height="800px" stroke="#ffffff" stroke-width=".00024" version="1.1" viewBox="-2.4 -2.4 28.8 28.8" xmlns="http://www.w3.org/2000/svg">
<g fill="#fff">
<path d="m14.13 11.34c0.39-1.64-1.04-3.0701-2.68-2.6801-0.77 0.19-1.4 0.82002-1.59 1.5901-0.39 1.64 1.04 3.0699 2.68 2.6799 0.78-0.19 1.41-0.8199 1.59-1.5899z"/>
<path d="m6.0209 17.97c-0.18001 0-0.37001-0.07-0.51001-0.2-1.94-1.8-3.05-4.34-3.05-6.98 0-5.26 4.28-9.54 9.54-9.54 5.26 0 9.54 4.28 9.54 9.54 0 2.66-1.07 5.12-3.01 6.95-0.3 0.28-0.78 0.27-1.06-0.03s-0.27-0.78 0.03-1.06c1.64-1.54 2.54-3.61 2.54-5.85 0-4.43-3.61-8.04-8.04-8.04-4.43 0-8.04 3.61-8.04 8.04 0 2.26 0.90999 4.34 2.57 5.88 0.3 0.28 0.32001 0.76 0.04001 1.06-0.15 0.15-0.35 0.23-0.55 0.23z" opacity=".4"/>
<path d="m16 15.3c-0.18 0-0.37-0.07-0.51-0.2-0.3-0.28-0.32-0.76-0.03-1.06 0.83-0.88 1.29-2.04 1.29-3.24 0-2.62-2.13-4.7399-4.74-4.7399-2.61 0-4.74 2.13-4.74 4.7399 0 1.21 0.45999 2.36 1.29 3.24 0.28 0.3 0.27001 0.78-0.02999 1.06-0.3 0.29-0.78 0.2701-1.06-0.0299-1.09-1.16-1.7-2.6801-1.7-4.2701 0-3.44 2.8-6.2399 6.24-6.2399 3.44 0 6.24 2.8 6.24 6.2399 0 1.59-0.6 3.1101-1.7 4.2701-0.15 0.15-0.35 0.2299-0.55 0.2299z" opacity=".4"/>
<path d="m10.301 16.66-1.44 1.7901c-1.14 1.43-0.13 3.5399 1.7 3.5399h2.87c1.83 0 2.85-2.1199 1.7-3.5399l-1.44-1.7901c-0.86-1.09-2.52-1.09-3.39 0z"/>
</g>
<g transform="matrix(.38882 0 0 .38882 16.089 17.305)" fill="#fff">
<path d="m12 22c5.5228 0 10-4.4772 10-10 0-5.5228-4.4772-10-10-10-5.5228 0-10 4.4772-10 10 0 5.5228 4.4772 10 10 10z" opacity=".4"/>
<path d="m13.059 12 2.3-2.3c0.29-0.29 0.29-0.77 0-1.06s-0.77-0.29-1.06 0l-2.3 2.3-2.3-2.3c-0.29-0.29-0.77-0.29-1.06 0-0.29 0.29-0.29 0.77 0 1.06l2.3 2.3-2.3 2.3c-0.29 0.29-0.29 0.77 0 1.06 0.15 0.15 0.33999 0.22 0.52999 0.22s0.38-0.07 0.53-0.22l2.3-2.3 2.3 2.3c0.15 0.15 0.34 0.22 0.53 0.22s0.38-0.07 0.53-0.22c0.29-0.29 0.29-0.77 0-1.06z"/>
</g>
</svg>
